<?xml version="1.0" encoding="UTF-8" standalone="no"?>
<!DOCTYPE svg PUBLIC "-//W3C//DTD SVG 1.1//EN" "http://www.w3.org/Graphics/SVG/1.1/DTD/svg11.dtd">
<svg version="1.1" xmlns="http://www.w3.org/2000/svg" xmlns:xlink="http://www.w3.org/1999/xlink" preserveAspectRatio="xMidYMid meet" viewBox="0 0 640 640" width="640" height="640">
	<style>
		path#a2GLjjIbUv, path#aQKi6YEuT, path#cU2AXUx4N, path#a1Pfy25Pg7, path#auJZFNYS8{
			fill: #324099;
			fill-opacity: 0.9;
		}
		path#eZqcXkAKI, path#a5iP3eCTa1, path#d1SB0WtMgy, path#d35w632sj, path#b2VYLpjoiO{
			fill: #eb421c;
			fill-opacity:0.9;
		}
		path#bcfRiOa0, path#b1xlDRKnDC, path#a2vGyHvi16, path#avUuMyNlP, path#fkH063bYd{
			fill: #3f992b;
			fill-opacity:0.9;
		}
		path#a2kwnNpA2M, path#b3hQ3wehmZ, path#aT5d8Nxkv, path#b11zxiiJ9{
			fill: #ebd91a;
			fill-opacity:0.9;
		}
	</style>

	<defs><path d="M70.45 261.44L65.95 271.35L65.95 286.67L70.45 330.81L56.94 330.81L32.61 318.2L32.61 296.58L27.21 281.26L21.8 268.65L21.8 258.74L21.8 250.63L70.45 261.44Z" id="a2GLjjIbUv"></path><path d="M123.88 329.33L116.93 329.24L109.12 329.13L100.43 329.02L83.1 325.46L83.21 317.13L80.72 308.77L80.85 298.78L81.19 272.98L76.12 262.92L120.28 273.5L119.9 302.64L123.88 329.33Z" id="eZqcXkAKI"></path><path d="M171.17 286.05L174.77 313.07L174.77 336.5L171.17 343.7L164.86 343.7L155.86 343.7L143.24 339.2L134.23 339.2L134.23 329.29L134.23 309.47L131.53 291.45L127.93 276.14L171.17 286.05Z" id="bcfRiOa0"></path><path d="M221.64 359.32L181.42 353.92L182.38 343.15L180.81 330.35L182.01 316.89L180.84 299.6L181.96 287.04L221.45 290.56L221.09 324.9L221.64 359.32Z" id="a2kwnNpA2M"></path><path d="M252.88 291.71L269.67 295.6L273.55 305.61L272.75 327.79L271.9 351.62L233.32 350.23L233.61 342.02L225.4 290.72L252.88 291.71Z" id="aQKi6YEuT"></path><path d="M311.95 296.84L315.44 336.69L316.51 352.07L322.55 357.78L288.09 361.53L276.85 295.15L311.95 296.84Z" id="a5iP3eCTa1"></path><path d="M350.63 296.13L354.23 318.65L363.27 349.28L354.23 349.28L325.41 352.88L325.41 331.26L320 296.13L350.63 296.13Z" id="b1xlDRKnDC"></path><path d="M384.53 295.15L396.47 346.11L366.13 352.75L353.75 296.48L384.53 295.15Z" id="b3hQ3wehmZ"></path><path d="M420.86 290.67L420.61 297.88L419.82 320.39L427.78 351.31L397.86 355.68L399.91 348.54L391.97 296.88L420.86 290.67Z" id="cU2AXUx4N"></path><path d="M477.93 276.7L479.32 285.43L486.47 291.45L488.41 303.66L497.88 327.2L475.59 337.01L474.06 327.41L453.04 285.13L477.93 276.7Z" id="a2vGyHvi16"></path><path d="M510.12 267.75L516.99 294.28L521.58 315.58L512.11 320.94L502.48 324.5L494.13 301.73L485.39 274.47L510.12 267.75Z" id="aT5d8Nxkv"></path><path d="M535.14 257.12L535.14 264.32L539.64 272.43L539.64 283.24L544.14 293.15L547.75 303.96L525.23 313.87L522.52 301.26L522.52 293.15L522.52 283.24L514.41 264.32L535.14 257.12Z" id="a1Pfy25Pg7"></path><path d="M558.56 243.39L558.56 251.49L561.26 261.4L564.86 274.02L568.47 283.93L571.17 292.94L561.26 296.54L548.65 301.04L548.65 292.94L545.95 278.52L538.74 256L558.56 243.39Z" id="d35w632sj"></path><path d="M576.05 233.82L580.31 244.71L586.69 260.75L587.51 274.24L575.3 281.3L571.95 270.67L567.81 261.89L559.48 243.44L576.05 233.82Z" id="avUuMyNlP"></path><path d="M594.55 215.18L593.73 222.8L597.02 234.3L598.74 243.54L602.04 254.95L589.23 264.52L587.42 256.09L579.2 231.47L594.55 215.18Z" id="b11zxiiJ9"></path><path d="M608.11 204.37L611.71 216.28L617.12 233.53L625.23 241.09L617.12 244.91L605.41 254.82L599.1 237.7L594.59 228.69L594.59 216.28L608.11 204.37Z" id="auJZFNYS8"></path><path d="M627.04 194.21L634.06 218.54L640.54 224.46L628.26 235.97L621.96 236.15L616.05 219.06L610.19 203.72L627.04 194.21Z" id="b2VYLpjoiO"></path><path d="M637.3 182.25L646.85 196.66L642.34 222.88L635.14 213.14L628.83 192.25L637.3 182.25Z" id="fkH063bYd"></path><path d="M447.71 287.04L446.59 294.15L449.26 305.52L447.44 317.09L449.6 326.55L452.65 336.15L439.58 338.65L430.17 339.9L428.43 327.78L430.11 317.1L427.78 291.19L447.71 287.04Z" id="d1SB0WtMgy"></path><path d="" id="e2YjivzZfg"></path><path d="M640.54 155.76L640.54 172.88L628.83 194.21L610.19 204.37L594.59 215.18L579.2 233.02L560.36 243.39L533.15 257.12L495.65 272.22L466.49 280.37L449.37 287.04L391.97 295.15L353.75 296.13L320 296.13L276.85 295.15L249.47 290.72L225.4 290.72L181.53 287.04L130.45 277.11L119.64 272.22L75.68 263.24L70.45 260.27L21.8 250.63L3.42 239.85" id="d1WExvvzqX"></path></defs><g><g><g><g><use xlink:href="#a2GLjjIbUv" opacity="1" fill-opacity="0" stroke="#000000" stroke-width="1" stroke-opacity="1"></use></g></g><g><g><use xlink:href="#eZqcXkAKI" opacity="1" fill-opacity="0" stroke="#000000" stroke-width="1" stroke-opacity="1"></use></g></g><g><g><use xlink:href="#bcfRiOa0" opacity="1" fill-opacity="0" stroke="#000000" stroke-width="1" stroke-opacity="1"></use></g></g><g><g><use xlink:href="#a2kwnNpA2M" opacity="1" fill-opacity="0" stroke="#000000" stroke-width="1" stroke-opacity="1"></use></g></g><g><g><use xlink:href="#aQKi6YEuT" opacity="1" fill-opacity="0" stroke="#000000" stroke-width="1" stroke-opacity="1"></use></g></g><g><g><use xlink:href="#a5iP3eCTa1" opacity="1" fill-opacity="0" stroke="#000000" stroke-width="1" stroke-opacity="1"></use></g></g><g><g><use xlink:href="#b1xlDRKnDC" opacity="1" fill-opacity="0" stroke="#000000" stroke-width="1" stroke-opacity="1"></use></g></g><g><g><use xlink:href="#b3hQ3wehmZ" opacity="1" fill-opacity="0" stroke="#000000" stroke-width="1" stroke-opacity="1"></use></g></g><g><g><use xlink:href="#cU2AXUx4N" opacity="1" fill-opacity="0" stroke="#000000" stroke-width="1" stroke-opacity="1"></use></g></g><g><g><use xlink:href="#a2vGyHvi16" opacity="1" fill-opacity="0" stroke="#000000" stroke-width="1" stroke-opacity="1"></use></g></g><g><g><use xlink:href="#aT5d8Nxkv" opacity="1" fill-opacity="0" stroke="#000000" stroke-width="1" stroke-opacity="1"></use></g></g><g><g><use xlink:href="#a1Pfy25Pg7" opacity="1" fill-opacity="0" stroke="#000000" stroke-width="1" stroke-opacity="1"></use></g></g><g><g><use xlink:href="#d35w632sj" opacity="1" fill-opacity="0" stroke="#000000" stroke-width="1" stroke-opacity="1"></use></g></g><g><g><use xlink:href="#avUuMyNlP" opacity="1" fill-opacity="0" stroke="#000000" stroke-width="1" stroke-opacity="1"></use></g></g><g><g><use xlink:href="#b11zxiiJ9" opacity="1" fill-opacity="0" stroke="#000000" stroke-width="1" stroke-opacity="1"></use></g></g><g><g><use xlink:href="#auJZFNYS8" opacity="1" fill-opacity="0" stroke="#000000" stroke-width="1" stroke-opacity="1"></use></g></g><g><g><use xlink:href="#b2VYLpjoiO" opacity="1" fill-opacity="0" stroke="#000000" stroke-width="1" stroke-opacity="1"></use></g></g><g><g><use xlink:href="#fkH063bYd" opacity="1" fill-opacity="0" stroke="#000000" stroke-width="1" stroke-opacity="1"></use></g></g><g><g><use xlink:href="#d1SB0WtMgy" opacity="1" fill-opacity="0" stroke="#000000" stroke-width="1" stroke-opacity="1"></use></g></g><g><g><use xlink:href="#e2YjivzZfg" opacity="1" fill-opacity="0" stroke="#000000" stroke-width="1" stroke-opacity="1"></use></g></g><g><g><use xlink:href="#d1WExvvzqX" opacity="1" fill-opacity="0" stroke="#000000" stroke-width="1" stroke-opacity="1"></use></g></g></g></g></svg>